<svg width="512" height="512" viewBox="0 0 512 512" fill="none" xmlns="http://www.w3.org/2000/svg">
  <rect width="512" height="512" rx="85" fill="#2563eb"/>
  <path d="M256 128C233.92 128 216 145.92 216 168C216 190.08 233.92 208 256 208C278.08 208 296 190.08 296 168C296 145.92 278.08 128 256 128ZM256 192C243 192 232 181 232 168C232 155 243 144 256 144C269 144 280 155 280 168C280 181 269 192 256 192Z" fill="white"/>
  <path d="M368 240H320L280 128H232L192 240H144L176 336H216L256 424L296 336H336L368 240ZM256 376L232 320H208L184 264H216L240 200H272L296 264H328L304 320H280L256 376Z" fill="white"/>
  <circle cx="256" cy="168" r="16" fill="white"/>
</svg>
